<svg width="24" height="24" fill="none" xmlns="http://www.w3.org/2000/svg"><path d="M12 24c6.627 0 12-5.373 12-12S18.627 0 12 0 0 5.373 0 12s5.373 12 12 12z" fill="#02BC62"/><path d="m13.644 17.706.025 3.148 1.947-1.058v-1.032l-1.972-1.058zM12.96 17.336l-1.112-.59-3.337 1.82 4.45 2.36.126.074-.025-3.615-.101-.049zM7.576 9.714V6.222L3.33 8.485l3.362 1.72.885-.49zM16.172 9.764l3.16 1.697V6.837l-3.16 1.72v1.206zM18.927 6.369l-1.972-1.057-.783.442v2.189l2.806-1.55-.05-.024zM15.893 15.96l-3.716-1.993V16.303l.101.05.506.27.278.148.278.147.227.123.05.025.456.245 1.542.837.278.147h.025l.253-.147L21 15.615v-2.336l-5.107 2.68z" fill="#fff"/><path d="m14.3 12.517-.505.27-.05.025-.127.074v-.05l-.05.025-.279.147-.328-.172-.051-.024-.126-.05h-.05l-.532-.27h-.025V13.328l3.716 2.017 4.273-2.263.455-.246.05-.024-.505-.27-.278-.173-.304-.147-.278-.148-3.135-1.697v1.107l-.252.148-.279.147-.303.148-1.037.59z" fill="#fff"/><path d="m9.194 8.854 2.528 1.352.026.05.025.024.379.197V11.633l.025-.025v.27h.026l.303.148.455.221v-5.09L8.158 4.6v4.819l.227-.123.81-.442z" fill="#fff"/><path d="M13.517 10.869v1.425l.076-.024 1.744-.959.278-.147V5.729l-.252-.147L10.533 3 8.462 4.131l5.056 2.705v4.033zM6.084 10.524 3 8.926v2.311l.91.468 2.149-1.156.025-.025zM9.876 11.335l.279-.172.303-.147.784-.443-2.048-1.106-.81.442-.05.025-.227.147-.076.025-.202.123-.076.024-.531.296-.177.098-.126.049-.152.098-.126.074-.152.074-1.997 1.082-.304.172h-.025v5.484l2.022 1.106-.025-5.238v-.172l.101-.073.43-.222.278-.172 2.907-1.574z" fill="#fff"/><path d="m11.267 16.426.177-.074.1-.074h.026l.05-.024V10.992l-.555.32-.304.147-.278.172-3.54 1.918-.227.147v.172l.025 5.017.076-.05.759-.393.278-.172.303-.148 2.781-1.5.329-.196z" fill="#fff"/></svg>