<svg width="24" height="24" fill="none" xmlns="http://www.w3.org/2000/svg"><path d="M24 12c0 6.627-5.373 12-12 12S0 18.627 0 12 5.373 0 12 0c6.628 0 12 5.373 12 12z" fill="#2081E2"/><path d="m5.92 12.403.052-.081 3.122-4.884a.107.107 0 0 1 .187.014c.522 1.169.972 2.622.76 3.527-.09.373-.336.877-.613 1.343a2.457 2.457 0 0 1-.117.198.106.106 0 0 1-.089.047h-3.21a.107.107 0 0 1-.092-.164z" fill="#fff"/><path d="M19.835 13.31v.774a.111.111 0 0 1-.067.1c-.242.104-1.069.484-1.413.962-.878 1.222-1.548 2.97-3.048 2.97H9.053a4.02 4.02 0 0 1-4.013-4.027v-.072c0-.06.048-.107.107-.107h3.487c.069 0 .12.064.113.132a1.19 1.19 0 0 0 .125.67c.207.42.636.682 1.1.682h1.726v-1.347H9.99a.11.11 0 0 1-.088-.173l.061-.091c.162-.23.392-.586.622-.991a7.75 7.75 0 0 0 .43-.86c.024-.053.044-.107.064-.16.033-.094.068-.181.092-.269.025-.074.045-.151.064-.224.058-.25.083-.513.083-.787 0-.107-.005-.22-.015-.326a4.264 4.264 0 0 0-.034-.352 3.59 3.59 0 0 0-.048-.313 5.244 5.244 0 0 0-.099-.468l-.013-.06c-.03-.107-.055-.21-.09-.316a11.935 11.935 0 0 0-.469-1.328c-.073-.177-.147-.337-.215-.489a6.88 6.88 0 0 1-.093-.196 7.002 7.002 0 0 0-.103-.214c-.024-.053-.053-.102-.072-.152l-.211-.39a.069.069 0 0 1 .078-.1l1.319.358h.004l.004.002.174.048.191.054.07.02v-.784c0-.379.304-.686.679-.686a.67.67 0 0 1 .48.201.689.689 0 0 1 .198.485v1.163l.14.04a.111.111 0 0 1 .032.016l.147.11c.05.04.103.088.167.138a10.021 10.021 0 0 1 .572.503c.214.2.455.434.684.693.064.072.127.146.191.224.064.079.132.157.191.234.078.104.162.211.234.323.035.053.074.107.108.16.093.142.176.289.255.436.033.068.068.141.097.214.088.196.157.396.201.596.014.043.024.09.029.132v.01c.014.059.02.122.024.186a1.995 1.995 0 0 1-.107.873c-.03.083-.06.17-.097.253a3.427 3.427 0 0 1-.266.504c-.033.059-.072.122-.112.18-.043.064-.087.123-.127.18a3.787 3.787 0 0 1-.171.222 2.36 2.36 0 0 1-.167.21c-.082.096-.161.189-.244.278-.049.058-.102.117-.156.17a6.422 6.422 0 0 1-.366.361l-.136.125a.11.11 0 0 1-.073.027h-1.05v1.347h1.322c.295 0 .577-.104.803-.297.078-.068.417-.361.818-.804a.103.103 0 0 1 .05-.03l3.65-1.056a.108.108 0 0 1 .138.104z" fill="#fff"/></svg>